<?xml version="1.0" encoding="utf-8"?>
<!-- Generator: Adobe Illustrator 22.1.0, SVG Export Plug-In . SVG Version: 6.00 Build 0)  -->
<svg version="1.1" id="Black" xmlns="http://www.w3.org/2000/svg" xmlns:xlink="http://www.w3.org/1999/xlink" x="0px" y="0px"
	 viewBox="0 0 54.4 91.7" style="enable-background:new 0 0 54.4 91.7;" xml:space="preserve">
<title>Brush Dark</title>
<path d="M25.4,0C24.7,16.8,18,32.8,6.5,45l-2.3,2.3l-0.5,0.5c-10,10,2.8,33.5,9.9,43.9h23l2.5-2.5c9.9-9.6,15.5-22.9,15.3-36.7
	C53.9,35.5,44,17.9,25.4,0z M35.5,74.7c-2.6,2.6-3.6,3.6-3.6,3.6c-0.8,0.1-1.7,0-2.4-0.5c-0.4-0.3-0.8-0.7-1-1.2
	c0,0,23.7,0.1,3.6-60.4C32.1,16.3,55.9,53.8,35.5,74.7z"/>
</svg>
