<?xml version="1.0" encoding="utf-8"?>
<!-- Generator: Adobe Illustrator 22.1.0, SVG Export Plug-In . SVG Version: 6.00 Build 0)  -->
<svg version="1.1" id="Black" xmlns="http://www.w3.org/2000/svg" xmlns:xlink="http://www.w3.org/1999/xlink" x="0px" y="0px"
	 viewBox="0 0 37.2 37.2" style="enable-background:new 0 0 37.2 37.2;" xml:space="preserve">
<style type="text/css">
	.st0{fill:url(#SVGID_1_);}
</style>
<title>Circle</title>
<path d="M18.6,0C8.3,0,0,8.3,0,18.6c0,10.3,8.3,18.6,18.6,18.6c10.3,0,18.6-8.3,18.6-18.6C37.2,8.3,28.9,0,18.6,0z M18.6,34.3
	c-8.7,0-15.7-7-15.7-15.7s7-15.7,15.7-15.7s15.7,7,15.7,15.7C34.3,27.3,27.3,34.3,18.6,34.3z"/>
<radialGradient id="SVGID_1_" cx="633.6901" cy="-131.41" r="10.82" gradientTransform="matrix(1 0 0 -1 -615.07 -112.79)" gradientUnits="userSpaceOnUse">
	<stop  offset="0" style="stop-color:#FB2F30"/>
	<stop  offset="1" style="stop-color:#DD2230"/>
</radialGradient>
<path class="st0" d="M26.4,13.3c-0.7,0.4-1,1.2-0.7,1.9c0,0,0,0,0,0c1.9,3.9,0.2,8.7-3.7,10.5S13.4,26,11.5,22
	c-1.9-3.9-0.2-8.7,3.7-10.5c1.1-0.5,2.2-0.8,3.4-0.8c1.2,0,2.3,0.3,3.4,0.8c0.7,0.4,1.6,0.1,2-0.6s0.1-1.6-0.6-2c0,0-0.1,0-0.1-0.1
	c-1.5-0.7-3-1.1-4.7-1.1c-6,0-10.8,4.8-10.8,10.8s4.8,10.8,10.8,10.8s10.8-4.8,10.8-10.8c0-1.6-0.4-3.2-1.1-4.6
	C28,13.2,27.2,12.9,26.4,13.3C26.4,13.3,26.4,13.3,26.4,13.3L26.4,13.3z"/>
</svg>
