<?xml version="1.0" encoding="utf-8"?>
<!-- Generator: Adobe Illustrator 22.1.0, SVG Export Plug-In . SVG Version: 6.00 Build 0)  -->
<svg version="1.1" id="Layer_1" xmlns="http://www.w3.org/2000/svg" xmlns:xlink="http://www.w3.org/1999/xlink" x="0px" y="0px"
	 viewBox="0 0 384 384" style="enable-background:new 0 0 384 384;" xml:space="preserve">
<path d="M128,48c-44.2,0-80,35.8-80,80v128c0,44.2,35.8,80,80,80h128c44.2,0,80-35.8,80-80V128c0-44.2-35.8-80-80-80H128z M288,80
	c8.8,0,16,7.2,16,16s-7.2,16-16,16s-16-7.2-16-16S279.2,80,288,80z M192,112c44.2,0,80,35.8,80,80s-35.8,80-80,80s-80-35.8-80-80
	S147.8,112,192,112z M192,144c-26.5,0-48,21.5-48,48s21.5,48,48,48s48-21.5,48-48S218.5,144,192,144z"/>
</svg>
