<?xml version="1.0" encoding="utf-8"?>
<!-- Generator: Adobe Illustrator 22.1.0, SVG Export Plug-In . SVG Version: 6.00 Build 0)  -->
<svg version="1.1" id="Layer_1" xmlns="http://www.w3.org/2000/svg" xmlns:xlink="http://www.w3.org/1999/xlink" x="0px" y="0px"
	 viewBox="0 0 500 500" style="enable-background:new 0 0 500 500;" xml:space="preserve">
<path d="M410,40H90c-27.6,0-50,22.4-50,50v320c0,27.6,22.4,50,50,50h320c27.6,0,50-22.4,50-50V90C460,62.4,437.6,40,410,40z
	 M370.1,223.2c-2.3,0.2-4.6,0.4-6.9,0.4c-26.2,0-49.3-13.5-62.7-33.9c0,53.5,0,114.3,0,115.4c0,47.1-38.2,85.3-85.3,85.3
	s-85.3-38.2-85.3-85.3s38.2-85.3,85.3-85.3c1.8,0,3.5,0.2,5.3,0.3v42c-1.7-0.2-3.5-0.5-5.3-0.5c-24,0-43.5,19.5-43.5,43.5
	c0,24,19.5,43.5,43.5,43.5s45.3-18.9,45.3-43c0-0.9,0.4-195.9,0.4-195.9H301c3.8,35.9,32.8,64.3,69,66.8V223.2z"/>
</svg>
