<?xml version="1.0" encoding="utf-8"?>
<!-- Generator: Adobe Illustrator 22.1.0, SVG Export Plug-In . SVG Version: 6.00 Build 0)  -->
<svg version="1.1" id="square" xmlns="http://www.w3.org/2000/svg" xmlns:xlink="http://www.w3.org/1999/xlink" x="0px" y="0px"
	 viewBox="0 0 37.2 37.2" style="enable-background:new 0 0 37.2 37.2;" xml:space="preserve" width="285" height="285">
<style type="text/css">
	.st0{fill:url(#SVGID_square_);}
</style>
<title>Square</title>
<radialGradient id="SVGID_square_" cx="549.49" cy="-131.395" r="9.2525" gradientTransform="matrix(1 0 0 -1 -530.87 -112.79)" gradientUnits="userSpaceOnUse">
	<stop  offset="0" style="stop-color:#DA8FC1"/>
	<stop  offset="0.46" style="stop-color:#D48ABC"/>
	<stop  offset="1" style="stop-color:#C67FB0"/>
</radialGradient>
<path class="st0" d="M24.9,9.4H12.4c-1.7,0-3,1.3-3,3v12.5c0,1.7,1.3,3,3,3h12.5c1.7,0,3-1.3,3-3V12.4C27.9,10.7,26.5,9.4,24.9,9.4
	L24.9,9.4z M25,24.9c0,0,0,0.1-0.1,0.1c0,0,0,0,0,0H12.4c-0.1,0-0.1,0-0.1-0.1V12.4c0-0.1,0-0.1,0.1-0.1h12.5c0.1,0,0.1,0,0.1,0.1
	V24.9L25,24.9z"/>
<path d="M37.2,18.6c0-3.8-1.1-7.4-3.3-10.6c-0.4-0.7-1.3-0.9-2-0.4c-0.7,0.4-0.9,1.3-0.4,2c0,0,0,0.1,0.1,0.1
	c4.9,7.1,3.1,16.9-4,21.9c-7.1,4.9-16.9,3.1-21.9-4c-4.9-7.1-3.1-16.9,4-21.9C15.1,2,22.2,2,27.6,5.7c0.6,0.5,1.5,0.4,2.1-0.2
	C30.1,4.9,30,4,29.4,3.4c-0.1,0-0.1-0.1-0.2-0.1C20.7-2.5,9.2-0.3,3.3,8.1C-2.5,16.6-0.3,28.2,8.1,34c8.5,5.8,20.1,3.7,25.9-4.8
	C36.1,26.1,37.3,22.4,37.2,18.6L37.2,18.6z"/>
</svg>
