<?xml version="1.0" encoding="utf-8"?>
<!-- Generator: Adobe Illustrator 22.1.0, SVG Export Plug-In . SVG Version: 6.00 Build 0)  -->
<svg version="1.1" id="Black" xmlns="http://www.w3.org/2000/svg" xmlns:xlink="http://www.w3.org/1999/xlink" x="0px" y="0px"
	 viewBox="0 0 37.2 37.2" style="enable-background:new 0 0 37.2 37.2;" xml:space="preserve">
<style type="text/css">
	.st0{fill:url(#SVGID_1_);}
</style>
<title>Triangle</title>
<path d="M18.6,37.2c10.3,0,18.6-8.3,18.6-18.6C37.3,8.4,29,0,18.7,0C8.4,0,0,8.3,0,18.6c0,0,0,0,0,0C0,28.9,8.4,37.2,18.6,37.2z
	 M18.6,2.9c8.7,0,15.7,7,15.7,15.7c0,8.7-7,15.7-15.7,15.7c-8.7,0-15.7-7-15.7-15.7c0,0,0,0,0,0C2.9,10,10,2.9,18.6,2.9z"/>
<radialGradient id="SVGID_1_" cx="591.595" cy="-129.8494" r="9.8789" gradientTransform="matrix(1 0 0 -1 -572.97 -112.79)" gradientUnits="userSpaceOnUse">
	<stop  offset="0" style="stop-color:#1DE69A"/>
	<stop  offset="1" style="stop-color:#39C689"/>
</radialGradient>
<path class="st0" d="M9.6,26.3h18c0.8,0,1.5-0.6,1.5-1.5c0-0.3-0.1-0.5-0.2-0.7l-9-15.6c-0.4-0.7-1.3-0.9-2-0.5
	c-0.2,0.1-0.4,0.3-0.5,0.5l-9,15.6c-0.3,0.5-0.3,1,0,1.5C8.6,26,9.1,26.3,9.6,26.3L9.6,26.3z M18.6,12.2l6.5,11.2h-13L18.6,12.2z"/>
</svg>
