<?xml version="1.0" encoding="utf-8"?>
<!-- Generator: Adobe Illustrator 22.1.0, SVG Export Plug-In . SVG Version: 6.00 Build 0)  -->
<svg version="1.1" id="Black" xmlns="http://www.w3.org/2000/svg" xmlns:xlink="http://www.w3.org/1999/xlink" x="0px" y="0px"
	 viewBox="0 0 37.2 37.2" style="enable-background:new 0 0 37.2 37.2;" xml:space="preserve">
<style type="text/css">
	.st0{fill:url(#SVGID_1_);}
</style>
<title>X</title>
<path d="M18.6,0C8.3,0,0,8.3,0,18.6c0,10.3,8.3,18.6,18.6,18.6c10.3,0,18.6-8.3,18.6-18.6c0,0,0,0,0,0C37.2,8.3,28.9,0,18.6,0z
	 M18.6,34.3c-8.7,0-15.7-7-15.7-15.7c0-8.7,7-15.7,15.7-15.7c8.7,0,15.7,7,15.7,15.7c0,0,0,0,0,0C34.3,27.3,27.3,34.3,18.6,34.3z"/>
<radialGradient id="SVGID_1_" cx="507.39" cy="-131.41" r="8.48" gradientTransform="matrix(1 0 0 -1 -488.77 -112.79)" gradientUnits="userSpaceOnUse">
	<stop  offset="0" style="stop-color:#698CC1"/>
	<stop  offset="1" style="stop-color:#6379A8"/>
</radialGradient>
<path class="st0" d="M26.7,10.6c-0.6-0.6-1.5-0.6-2.1,0c0,0,0,0,0,0l-6,6l-6-6c-0.6-0.6-1.5-0.6-2.1,0s-0.6,1.5,0,2.1l0,0l6,6l-6,6
	c-0.6,0.6-0.6,1.5,0,2.1s1.5,0.6,2.1,0l0,0l6-6l6,6c0.3,0.3,0.6,0.4,1,0.4c0.4,0,0.7-0.2,1-0.4c0.6-0.6,0.6-1.5,0-2.1l-6-6l6-6
	C27.2,12.1,27.2,11.2,26.7,10.6z"/>
</svg>
